<svg width="200" height="200" viewBox="0 0 200 200" fill="none" xmlns="http://www.w3.org/2000/svg">
  <path d="M100 20C100 20 140 60 140 100C140 122.091 122.091 140 100 140C77.9086 140 60 122.091 60 100C60 60 100 20 100 20Z" fill="#4DA2FF"/>
  <path d="M100 60C100 60 120 80 120 100C120 111.046 111.046 120 100 120C88.9543 120 80 111.046 80 100C80 80 100 60 100 60Z" fill="white"/>
  <path d="M100 140C77.9086 140 60 122.091 60 100C60 95 62 90 65 85L100 120C122.091 120 140 102.091 140 80C140 75 138 70 135 65L100 100C77.9086 100 60 82.0914 60 60L100 20L140 60C140 82.0914 122.091 100 100 100L135 135C138 130 140 125 140 120C140 142.091 122.091 160 100 160C77.9086 160 60 142.091 60 120C60 115 62 110 65 105L100 140Z" fill="#4DA2FF"/>
</svg>
